<svg width="150" height="150" viewBox="0 0 150 150" fill="none" xmlns="http://www.w3.org/2000/svg">
<circle cx="75" cy="75" r="74.25" fill="white" fill-opacity="0.17" stroke="black" stroke-width="1.5"/>
<path d="M75.5173 75.0043C69.6379 75.0043 64.8276 73.1336 61.0862 69.3922C57.3448 65.6509 55.4741 60.8405 55.4741 54.9612C55.4741 49.0819 57.3448 44.2715 61.0862 40.5302C64.8276 36.7888 69.6379 34.9181 75.5173 34.9181C81.3966 34.9181 86.2069 36.7888 89.9483 40.5302C93.6897 44.2715 95.5604 49.0819 95.5604 54.9612C95.5604 60.8405 93.6897 65.6509 89.9483 69.3922C86.2069 73.1336 81.3966 75.0043 75.5173 75.0043ZM32.7586 117.897V105.336C32.7586 101.951 33.6049 99.056 35.2974 96.6509C36.9899 94.2457 39.1724 92.4195 41.8448 91.1724C47.8132 88.5 53.5366 86.4957 59.0151 85.1595C64.4935 83.8233 69.9943 83.1552 75.5173 83.1552C81.0402 83.1552 86.5187 83.8455 91.9526 85.2263C97.3865 86.607 103.088 88.5891 109.056 91.1724C111.818 92.4195 114.045 94.2457 115.737 96.6509C117.43 99.056 118.276 101.951 118.276 105.336V117.897H32.7586Z" fill="black"/>
</svg>