<svg width="183" height="26" viewBox="0 0 183 26" fill="none" xmlns="http://www.w3.org/2000/svg">
<path fill-rule="evenodd" clip-rule="evenodd" d="M3.35581 26C2.24174 26 1.36954 25.6357 0.739206 24.9071C0.108875 24.1786 -0.118337 23.1714 0.0575694 21.8857L2.16844 7.52857C2.40299 6.01429 3.1286 4.71429 4.34528 3.62857C5.56197 2.54286 6.94723 2 8.50107 2H27.5429C29.0968 2 30.482 2.54286 31.6987 3.62857C32.9154 4.71429 33.641 6.01429 33.8755 7.52857L35.9424 21.8857C36.1183 23.1714 35.8911 24.1786 35.2608 24.9071C34.6305 25.6357 33.7583 26 32.6442 26C31.9699 26 31.3982 25.8929 30.9291 25.6786C30.46 25.4643 30.0642 25.2 29.7417 24.8857L25.3138 20.5705C25.2204 20.4795 25.0952 20.4286 24.9648 20.4286H11.0352C10.9048 20.4286 10.7796 20.4795 10.6862 20.5705L6.25826 24.8857C5.93577 25.2 5.53998 25.4643 5.0709 25.6786C4.60181 25.8929 4.03012 26 3.35581 26ZM10.0842 15C10.0842 15.2761 10.3081 15.5 10.5842 15.5H11.783C12.0592 15.5 12.283 15.2761 12.283 15V12.7857C12.283 12.5096 12.5069 12.2857 12.783 12.2857H15.0813C15.3574 12.2857 15.5813 12.0619 15.5813 11.7857V10.6429C15.5813 10.3667 15.3574 10.1429 15.0813 10.1429H12.783C12.5069 10.1429 12.283 9.919 12.283 9.64286V7.42857C12.283 7.15243 12.0592 6.92857 11.783 6.92857H10.5842C10.3081 6.92857 10.0842 7.15243 10.0842 7.42857V9.64286C10.0842 9.919 9.86036 10.1429 9.58422 10.1429H7.28598C7.00984 10.1429 6.78598 10.3667 6.78598 10.6429V11.7857C6.78598 12.0619 7.00984 12.2857 7.28598 12.2857H9.58422C9.86036 12.2857 10.0842 12.5096 10.0842 12.7857V15ZM21.6893 12.8C22.1584 12.8 22.5688 12.6286 22.9207 12.2857C23.2725 11.9429 23.4484 11.5429 23.4484 11.0857C23.4484 10.6286 23.2725 10.2286 22.9207 9.88571C22.5688 9.54286 22.1584 9.37143 21.6893 9.37143C21.2202 9.37143 20.8098 9.54286 20.458 9.88571C20.1062 10.2286 19.9302 10.6286 19.9302 11.0857C19.9302 11.5429 20.1062 11.9429 20.458 12.2857C20.8098 12.6286 21.2202 12.8 21.6893 12.8ZM26.4388 8.85714C26.087 9.2 25.6765 9.37143 25.2074 9.37143C24.7383 9.37143 24.3279 9.2 23.9761 8.85714C23.6243 8.51429 23.4484 8.11429 23.4484 7.65714C23.4484 7.2 23.6243 6.8 23.9761 6.45714C24.3279 6.11429 24.7383 5.94286 25.2074 5.94286C25.6765 5.94286 26.087 6.11429 26.4388 6.45714C26.7906 6.8 26.9665 7.2 26.9665 7.65714C26.9665 8.11429 26.7906 8.51429 26.4388 8.85714ZM28.7256 12.8C29.1946 12.8 29.6051 12.6286 29.9569 12.2857C30.3087 11.9429 30.4846 11.5429 30.4846 11.0857C30.4846 10.6286 30.3087 10.2286 29.9569 9.88571C29.6051 9.54286 29.1946 9.37143 28.7256 9.37143C28.2565 9.37143 27.846 9.54286 27.4942 9.88571C27.1424 10.2286 26.9665 10.6286 26.9665 11.0857C26.9665 11.5429 27.1424 11.9429 27.4942 12.2857C27.846 12.6286 28.2565 12.8 28.7256 12.8ZM26.4388 15.7143C26.087 16.0571 25.6765 16.2286 25.2074 16.2286C24.7383 16.2286 24.3279 16.0571 23.9761 15.7143C23.6243 15.3714 23.4484 14.9714 23.4484 14.5143C23.4484 14.0571 23.6243 13.6571 23.9761 13.3143C24.3279 12.9714 24.7383 12.8 25.2074 12.8C25.6765 12.8 26.087 12.9714 26.4388 13.3143C26.7906 13.6571 26.9665 14.0571 26.9665 14.5143C26.9665 14.9714 26.7906 15.3714 26.4388 15.7143Z" fill="white"/>
<path d="M58.7125 13.1094V22.125C58.3583 22.5521 57.8115 23.0156 57.0719 23.5156C56.3323 24.0052 55.3792 24.4271 54.2125 24.7812C53.0458 25.1354 51.6344 25.3125 49.9781 25.3125C48.5094 25.3125 47.1708 25.0729 45.9625 24.5938C44.7542 24.1042 43.7125 23.3906 42.8375 22.4531C41.9729 21.5156 41.3063 20.3698 40.8375 19.0156C40.3688 17.651 40.1344 16.0938 40.1344 14.3438V12.9219C40.1344 11.1719 40.3583 9.61458 40.8063 8.25C41.2646 6.88542 41.9156 5.73438 42.7594 4.79688C43.6031 3.85938 44.6083 3.14583 45.775 2.65625C46.9417 2.16667 48.2385 1.92188 49.6656 1.92188C51.6448 1.92188 53.2698 2.24479 54.5406 2.89062C55.8115 3.52604 56.7802 4.41146 57.4469 5.54688C58.124 6.67188 58.5406 7.96354 58.6969 9.42188H54.15C54.0354 8.65104 53.8167 7.97917 53.4938 7.40625C53.1708 6.83333 52.7073 6.38542 52.1031 6.0625C51.5094 5.73958 50.7385 5.57812 49.7906 5.57812C49.0094 5.57812 48.3115 5.73958 47.6969 6.0625C47.0927 6.375 46.5823 6.83854 46.1656 7.45312C45.749 8.06771 45.4313 8.82812 45.2125 9.73438C44.9938 10.6406 44.8844 11.6927 44.8844 12.8906V14.3438C44.8844 15.5312 44.999 16.5833 45.2281 17.5C45.4573 18.4062 45.7958 19.1719 46.2438 19.7969C46.7021 20.4115 47.2646 20.875 47.9313 21.1875C48.5979 21.5 49.374 21.6562 50.2594 21.6562C50.999 21.6562 51.6135 21.5938 52.1031 21.4688C52.6031 21.3438 53.0042 21.1927 53.3063 21.0156C53.6188 20.8281 53.8583 20.651 54.025 20.4844V16.4531H49.7438V13.1094H58.7125ZM71.1875 21.1875V13.6562C71.1875 13.1146 71.099 12.651 70.9219 12.2656C70.7448 11.8698 70.4688 11.5625 70.0938 11.3438C69.7292 11.125 69.2552 11.0156 68.6719 11.0156C68.1719 11.0156 67.7396 11.1042 67.375 11.2812C67.0104 11.4479 66.7292 11.6927 66.5313 12.0156C66.3333 12.3281 66.2344 12.6979 66.2344 13.125H61.7344C61.7344 12.4062 61.901 11.724 62.2344 11.0781C62.5677 10.4323 63.0521 9.86458 63.6875 9.375C64.3229 8.875 65.0781 8.48438 65.9531 8.20312C66.8385 7.92188 67.8281 7.78125 68.9219 7.78125C70.2344 7.78125 71.401 8 72.4219 8.4375C73.4427 8.875 74.2448 9.53125 74.8281 10.4062C75.4219 11.2812 75.7188 12.375 75.7188 13.6875V20.9219C75.7188 21.849 75.776 22.6094 75.8906 23.2031C76.0052 23.7865 76.1719 24.2969 76.3906 24.7344V25H71.8438C71.625 24.5417 71.4583 23.9688 71.3438 23.2812C71.2396 22.5833 71.1875 21.8854 71.1875 21.1875ZM71.7813 14.7031L71.8125 17.25H69.2969C68.7031 17.25 68.1875 17.3177 67.75 17.4531C67.3125 17.5885 66.9531 17.7812 66.6719 18.0312C66.3906 18.2708 66.1823 18.5521 66.0469 18.875C65.9219 19.1979 65.8594 19.5521 65.8594 19.9375C65.8594 20.3229 65.9479 20.6719 66.125 20.9844C66.3021 21.2865 66.5573 21.526 66.8906 21.7031C67.224 21.8698 67.6146 21.9531 68.0625 21.9531C68.7396 21.9531 69.3281 21.8177 69.8281 21.5469C70.3281 21.276 70.7135 20.9427 70.9844 20.5469C71.2656 20.151 71.4115 19.776 71.4219 19.4219L72.6094 21.3281C72.4427 21.7552 72.2135 22.1979 71.9219 22.6562C71.6406 23.1146 71.2813 23.5469 70.8438 23.9531C70.4063 24.349 69.8802 24.6771 69.2656 24.9375C68.651 25.1875 67.9219 25.3125 67.0781 25.3125C66.0052 25.3125 65.0313 25.099 64.1563 24.6719C63.2917 24.2344 62.6042 23.6354 62.0938 22.875C61.5938 22.1042 61.3438 21.2292 61.3438 20.25C61.3438 19.3646 61.5104 18.5781 61.8438 17.8906C62.1771 17.2031 62.6667 16.625 63.3125 16.1562C63.9688 15.6771 64.7865 15.3177 65.7656 15.0781C66.7448 14.8281 67.8802 14.7031 69.1719 14.7031H71.7813ZM83.5375 11.5938V25H79.0219V8.09375H83.2563L83.5375 11.5938ZM82.9125 15.9531H81.6625C81.6625 14.776 81.8031 13.6927 82.0844 12.7031C82.376 11.7031 82.7979 10.8385 83.35 10.1094C83.9125 9.36979 84.6052 8.79688 85.4281 8.39062C86.251 7.98438 87.2042 7.78125 88.2875 7.78125C89.0375 7.78125 89.725 7.89583 90.35 8.125C90.975 8.34375 91.5115 8.69271 91.9594 9.17188C92.4177 9.64062 92.7719 10.2552 93.0219 11.0156C93.2719 11.7656 93.3969 12.6667 93.3969 13.7188V25H88.8969V14.2188C88.8969 13.4479 88.7927 12.8542 88.5844 12.4375C88.376 12.0208 88.0792 11.7292 87.6938 11.5625C87.3188 11.3958 86.8656 11.3125 86.3344 11.3125C85.751 11.3125 85.2406 11.4323 84.8031 11.6719C84.376 11.9115 84.0219 12.2448 83.7406 12.6719C83.4594 13.0885 83.251 13.5781 83.1156 14.1406C82.9802 14.7031 82.9125 15.3073 82.9125 15.9531ZM92.975 15.4375L91.3656 15.6406C91.3656 14.5365 91.501 13.5104 91.7719 12.5625C92.0531 11.6146 92.4646 10.7812 93.0063 10.0625C93.5583 9.34375 94.2406 8.78646 95.0531 8.39062C95.8656 7.98438 96.8031 7.78125 97.8656 7.78125C98.6781 7.78125 99.4177 7.90104 100.084 8.14062C100.751 8.36979 101.319 8.73958 101.788 9.25C102.267 9.75 102.631 10.4062 102.881 11.2188C103.142 12.0312 103.272 13.026 103.272 14.2031V25H98.7563V14.2031C98.7563 13.4219 98.6521 12.8281 98.4438 12.4219C98.2458 12.0052 97.9542 11.7188 97.5688 11.5625C97.1938 11.3958 96.7458 11.3125 96.225 11.3125C95.6833 11.3125 95.2094 11.4219 94.8031 11.6406C94.3969 11.849 94.0583 12.1406 93.7875 12.5156C93.5167 12.8906 93.3135 13.3281 93.1781 13.8281C93.0427 14.3177 92.975 14.8542 92.975 15.4375ZM114.388 25.3125C113.075 25.3125 111.898 25.1042 110.856 24.6875C109.815 24.2604 108.929 23.6719 108.2 22.9219C107.481 22.1719 106.929 21.3021 106.544 20.3125C106.158 19.3125 105.966 18.25 105.966 17.125V16.5C105.966 15.2188 106.148 14.0469 106.513 12.9844C106.877 11.9219 107.398 11 108.075 10.2188C108.763 9.4375 109.596 8.83854 110.575 8.42188C111.554 7.99479 112.658 7.78125 113.888 7.78125C115.085 7.78125 116.148 7.97917 117.075 8.375C118.002 8.77083 118.778 9.33333 119.403 10.0625C120.039 10.7917 120.518 11.6667 120.841 12.6875C121.164 13.6979 121.325 14.8229 121.325 16.0625V17.9375H107.888V14.9375H116.903V14.5938C116.903 13.9688 116.789 13.4115 116.559 12.9219C116.341 12.4219 116.007 12.026 115.559 11.7344C115.111 11.4427 114.539 11.2969 113.841 11.2969C113.247 11.2969 112.736 11.4271 112.309 11.6875C111.882 11.9479 111.533 12.3125 111.263 12.7812C111.002 13.25 110.804 13.8021 110.669 14.4375C110.544 15.0625 110.481 15.75 110.481 16.5V17.125C110.481 17.8021 110.575 18.4271 110.763 19C110.96 19.5729 111.236 20.0677 111.591 20.4844C111.955 20.901 112.393 21.224 112.903 21.4531C113.424 21.6823 114.013 21.7969 114.669 21.7969C115.481 21.7969 116.236 21.6406 116.934 21.3281C117.643 21.0052 118.252 20.5208 118.763 19.875L120.95 22.25C120.596 22.7604 120.111 23.25 119.497 23.7188C118.893 24.1875 118.164 24.5729 117.309 24.875C116.455 25.1667 115.481 25.3125 114.388 25.3125ZM138.644 21.3438V25H127.191V21.3438H138.644ZM128.706 2.25V25H124.019V2.25H128.706ZM145.65 8.09375V25H141.134V8.09375H145.65ZM140.853 3.6875C140.853 3.03125 141.082 2.48958 141.541 2.0625C141.999 1.63542 142.614 1.42188 143.384 1.42188C144.145 1.42188 144.754 1.63542 145.213 2.0625C145.681 2.48958 145.916 3.03125 145.916 3.6875C145.916 4.34375 145.681 4.88542 145.213 5.3125C144.754 5.73958 144.145 5.95312 143.384 5.95312C142.614 5.95312 141.999 5.73958 141.541 5.3125C141.082 4.88542 140.853 4.34375 140.853 3.6875ZM153.625 11.7031V25H149.125V8.09375H153.344L153.625 11.7031ZM152.969 15.9531H151.75C151.75 14.7031 151.911 13.5781 152.234 12.5781C152.557 11.5677 153.01 10.7083 153.594 10C154.177 9.28125 154.87 8.73438 155.672 8.35938C156.484 7.97396 157.391 7.78125 158.391 7.78125C159.182 7.78125 159.906 7.89583 160.562 8.125C161.219 8.35417 161.781 8.71875 162.25 9.21875C162.729 9.71875 163.094 10.3802 163.344 11.2031C163.604 12.026 163.734 13.0312 163.734 14.2188V25H159.203V14.2031C159.203 13.4531 159.099 12.8698 158.891 12.4531C158.682 12.0365 158.375 11.7448 157.969 11.5781C157.573 11.401 157.083 11.3125 156.5 11.3125C155.896 11.3125 155.37 11.4323 154.922 11.6719C154.484 11.9115 154.12 12.2448 153.828 12.6719C153.547 13.0885 153.333 13.5781 153.188 14.1406C153.042 14.7031 152.969 15.3073 152.969 15.9531ZM171.506 0.984375V25H167.006V0.984375H171.506ZM182.162 8.09375L174.819 16.4688L170.881 20.4531L169.241 17.2031L172.366 13.2344L176.756 8.09375H182.162ZM177.491 25L172.491 17.1875L175.6 14.4688L182.678 25H177.491Z" fill="white"/>
</svg>
