<svg width="61" height="25" viewBox="0 0 61 25" fill="none" xmlns="http://www.w3.org/2000/svg">
<path fill-rule="evenodd" clip-rule="evenodd" d="M41.4999 18.4286C41.2238 18.4286 40.9999 18.2047 40.9999 17.9285L41 13C40.9999 11.5 41 9.49998 41.0576 8.14284V-1.71661e-05H51.6005C53.1543 -1.71661e-05 54.5396 0.54284 55.7563 1.62855C56.9729 2.71427 57.6986 4.01427 57.9331 5.52855L60 19.8857C60.1759 21.1714 59.9487 22.1786 59.3184 22.9071C58.688 23.6357 57.8158 24 56.7018 24C56.0274 24 55.4558 23.8928 54.9867 23.6786C54.5176 23.4643 54.1218 23.2 53.7993 22.8857L49.3714 18.5705C49.278 18.4795 49.1528 18.4286 49.0224 18.4286H41.4999ZM50.4963 6.85713C50.1445 7.19998 49.7341 7.37141 49.265 7.37141C48.7959 7.37141 48.3855 7.19998 48.0337 6.85713C47.6818 6.51427 47.5059 6.11427 47.5059 5.65713C47.5059 5.19998 47.6818 4.79998 48.0337 4.45713C48.3855 4.11427 48.7959 3.94284 49.265 3.94284C49.7341 3.94284 50.1445 4.11427 50.4963 4.45713C50.8482 4.79998 51.0241 5.19998 51.0241 5.65713C51.0241 6.11427 50.8482 6.51427 50.4963 6.85713ZM46.9782 10.2857C46.6264 10.6286 46.216 10.8 45.7469 10.8C45.2778 10.8 44.8673 10.6286 44.5155 10.2857C44.1637 9.94284 43.9878 9.54284 43.9878 9.0857C43.9878 8.62855 44.1637 8.22855 44.5155 7.8857C44.8673 7.54284 45.2778 7.37141 45.7469 7.37141C46.216 7.37141 46.6264 7.54284 46.9782 7.8857C47.33 8.22855 47.5059 8.62855 47.5059 9.0857C47.5059 9.54284 47.33 9.94284 46.9782 10.2857ZM54.0145 10.2857C53.6627 10.6286 53.2522 10.8 52.7831 10.8C52.314 10.8 51.9036 10.6286 51.5518 10.2857C51.2 9.94284 51.0241 9.54284 51.0241 9.0857C51.0241 8.62855 51.2 8.22855 51.5518 7.8857C51.9036 7.54284 52.314 7.37141 52.7831 7.37141C53.2522 7.37141 53.6627 7.54284 54.0145 7.8857C54.3663 8.22855 54.5422 8.62855 54.5422 9.0857C54.5422 9.54284 54.3663 9.94284 54.0145 10.2857ZM50.4963 13.7143C50.1445 14.0571 49.7341 14.2286 49.265 14.2286C48.7959 14.2286 48.3855 14.0571 48.0337 13.7143C47.6818 13.3714 47.5059 12.9714 47.5059 12.5143C47.5059 12.0571 47.6818 11.6571 48.0337 11.3143C48.3855 10.9714 48.7959 10.8 49.265 10.8C49.7341 10.8 50.1445 10.9714 50.4963 11.3143C50.8482 11.6571 51.0241 12.0571 51.0241 12.5143C51.0241 12.9714 50.8482 13.3714 50.4963 13.7143Z" fill="black"/>
<path fill-rule="evenodd" clip-rule="evenodd" d="M0.739206 23.2303C1.36954 23.9588 2.24174 24.3231 3.35581 24.3231C4.03012 24.3231 4.60181 24.216 5.0709 24.0017C5.53998 23.7874 5.93577 23.5231 6.25826 23.2088L10.6907 18.8893C10.7814 18.8009 10.9023 18.7502 11.0289 18.7475L17.5107 18.6081C17.7826 18.6023 18 18.3802 18 18.1083V8.32312V0.82312C18 0.546978 17.7761 0.32312 17.5 0.32312H8.50107C6.94723 0.32312 5.56197 0.865975 4.34528 1.95169C3.1286 3.0374 2.40299 4.33741 2.16844 5.8517L0.0575694 20.2088C-0.118337 21.4945 0.108875 22.5017 0.739206 23.2303ZM12.283 13.3231C12.283 13.5993 12.0592 13.8231 11.783 13.8231H10.5842C10.3081 13.8231 10.0842 13.5993 10.0842 13.3231V11.1088C10.0842 10.8327 9.86036 10.6088 9.58422 10.6088H7.28598C7.00984 10.6088 6.78598 10.385 6.78598 10.1088V8.96598C6.78598 8.68983 7.00984 8.46598 7.28598 8.46598H9.58422C9.86036 8.46598 10.0842 8.24212 10.0842 7.96598V5.7517C10.0842 5.47555 10.3081 5.25169 10.5842 5.25169H11.783C12.0592 5.25169 12.283 5.47555 12.283 5.75169V7.96598C12.283 8.24212 12.5069 8.46598 12.783 8.46598H15.0813C15.3574 8.46598 15.5813 8.68983 15.5813 8.96598V10.1088C15.5813 10.385 15.3574 10.6088 15.0813 10.6088H12.783C12.5069 10.6088 12.283 10.8327 12.283 11.1088V13.3231Z" fill="black"/>
<path d="M22.0001 18.4415C21.3573 18.4415 20.3864 18.4387 19.5001 18.4377C19.2239 18.4374 19.0001 18.2138 19.0001 17.9377C19.0001 17.3759 19.0002 16.6143 19.0002 16.0716L19.0002 2.48836C19.0002 1.97407 19.0002 1.39328 19.0002 0.937319C19.0002 0.661156 19.2241 0.437453 19.5002 0.437453C19.9468 0.437454 20.45 0.437451 21.0002 0.437451L27.0001 0.321606C28.3906 0.321606 29.056 0.321523 29.5005 0.321534C29.7766 0.321542 30.0001 0.545082 30.0001 0.821152C30.0001 1.3834 30.0001 2.20855 30.0001 2.82172C30.0001 3.09786 29.7762 3.32161 29.5001 3.32161H22.5001C22.224 3.32161 22.0001 3.54546 22.0001 3.82161V14.8216C22.0001 15.0977 22.224 15.3216 22.5001 15.3216L27 15.3214C27.2762 15.3214 27.5 15.0976 27.5 14.8214V11.8215C27.5 11.5453 27.2761 11.3214 26.9999 11.3215L26.5001 11.3215C26.224 11.3216 26.0001 11.0977 26.0001 10.8215V8.78514C26.0001 8.50696 26.2271 8.28226 26.5053 8.28516L29.5053 8.31645C29.7794 8.31931 30.0001 8.54231 30.0001 8.81642V16.0716C30.0001 16.8049 29.5751 17.2716 29.0001 17.8216C28.4251 18.3716 27.7667 18.4374 27.0001 18.4374L22.0001 18.4415Z" fill="black"/>
<path d="M31.5 18.3214C31.2239 18.3214 31 18.0976 31 17.8214V0.821411C31 0.545269 31.2239 0.321411 31.5 0.321411H33.5C33.7761 0.321411 34 0.545269 34 0.821411V14.8214C34 15.0976 34.2239 15.3214 34.5 15.3214H39.5C39.7761 15.3214 40 15.5453 40 15.8214V17.8214C40 18.0976 39.7761 18.3214 39.5 18.3214H31.5Z" fill="black"/>
</svg>
