<svg width="36" height="24" viewBox="0 0 36 24" fill="none" xmlns="http://www.w3.org/2000/svg">
<path fill-rule="evenodd" clip-rule="evenodd" d="M3.35581 24C2.24174 24 1.36954 23.6357 0.739206 22.9071C0.108875 22.1786 -0.118337 21.1714 0.0575694 19.8857L2.16844 5.52857C2.40299 4.01429 3.1286 2.71429 4.34528 1.62857C5.56197 0.542857 6.94723 0 8.50107 0H27.5429C29.0968 0 30.482 0.542857 31.6987 1.62857C32.9154 2.71429 33.641 4.01429 33.8755 5.52857L35.9424 19.8857C36.1183 21.1714 35.8911 22.1786 35.2608 22.9071C34.6305 23.6357 33.7583 24 32.6442 24C31.9699 24 31.3982 23.8929 30.9291 23.6786C30.46 23.4643 30.0642 23.2 29.7417 22.8857L25.3138 18.5705C25.2204 18.4795 25.0952 18.4286 24.9648 18.4286H11.0352C10.9048 18.4286 10.7796 18.4795 10.6862 18.5705L6.25826 22.8857C5.93577 23.2 5.53998 23.4643 5.0709 23.6786C4.60181 23.8929 4.03012 24 3.35581 24ZM10.0842 13C10.0842 13.2761 10.3081 13.5 10.5842 13.5H11.783C12.0592 13.5 12.283 13.2761 12.283 13V10.7857C12.283 10.5096 12.5069 10.2857 12.783 10.2857H15.0813C15.3574 10.2857 15.5813 10.0619 15.5813 9.78571V8.64286C15.5813 8.36672 15.3574 8.14286 15.0813 8.14286H12.783C12.5069 8.14286 12.283 7.919 12.283 7.64286V5.42857C12.283 5.15243 12.0592 4.92857 11.783 4.92857H10.5842C10.3081 4.92857 10.0842 5.15243 10.0842 5.42857V7.64286C10.0842 7.919 9.86036 8.14286 9.58422 8.14286H7.28598C7.00984 8.14286 6.78598 8.36672 6.78598 8.64286V9.78571C6.78598 10.0619 7.00984 10.2857 7.28598 10.2857H9.58422C9.86036 10.2857 10.0842 10.5096 10.0842 10.7857V13ZM21.6893 10.8C22.1584 10.8 22.5688 10.6286 22.9207 10.2857C23.2725 9.94286 23.4484 9.54286 23.4484 9.08571C23.4484 8.62857 23.2725 8.22857 22.9207 7.88571C22.5688 7.54286 22.1584 7.37143 21.6893 7.37143C21.2202 7.37143 20.8098 7.54286 20.458 7.88571C20.1062 8.22857 19.9302 8.62857 19.9302 9.08571C19.9302 9.54286 20.1062 9.94286 20.458 10.2857C20.8098 10.6286 21.2202 10.8 21.6893 10.8ZM26.4388 6.85714C26.087 7.2 25.6765 7.37143 25.2074 7.37143C24.7383 7.37143 24.3279 7.2 23.9761 6.85714C23.6243 6.51429 23.4484 6.11429 23.4484 5.65714C23.4484 5.2 23.6243 4.8 23.9761 4.45714C24.3279 4.11429 24.7383 3.94286 25.2074 3.94286C25.6765 3.94286 26.087 4.11429 26.4388 4.45714C26.7906 4.8 26.9665 5.2 26.9665 5.65714C26.9665 6.11429 26.7906 6.51429 26.4388 6.85714ZM28.7256 10.8C29.1946 10.8 29.6051 10.6286 29.9569 10.2857C30.3087 9.94286 30.4846 9.54286 30.4846 9.08571C30.4846 8.62857 30.3087 8.22857 29.9569 7.88571C29.6051 7.54286 29.1946 7.37143 28.7256 7.37143C28.2565 7.37143 27.846 7.54286 27.4942 7.88571C27.1424 8.22857 26.9665 8.62857 26.9665 9.08571C26.9665 9.54286 27.1424 9.94286 27.4942 10.2857C27.846 10.6286 28.2565 10.8 28.7256 10.8ZM26.4388 13.7143C26.087 14.0571 25.6765 14.2286 25.2074 14.2286C24.7383 14.2286 24.3279 14.0571 23.9761 13.7143C23.6243 13.3714 23.4484 12.9714 23.4484 12.5143C23.4484 12.0571 23.6243 11.6571 23.9761 11.3143C24.3279 10.9714 24.7383 10.8 25.2074 10.8C25.6765 10.8 26.087 10.9714 26.4388 11.3143C26.7906 11.6571 26.9665 12.0571 26.9665 12.5143C26.9665 12.9714 26.7906 13.3714 26.4388 13.7143Z" fill="black"/>
</svg>
