<svg width="100" height="100" viewBox="0 0 100 100" fill="none" xmlns="http://www.w3.org/2000/svg">
<path d="M45 100C42.2386 100 40 97.7614 40 95V65C40 62.2386 37.7614 60 35 60H5C2.23858 60 0 57.7614 0 55V45C0 42.2386 2.23858 40 5 40H35C37.7614 40 40 37.7614 40 35V5C40 2.23858 42.2386 0 45 0H55C57.7614 0 60 2.23858 60 5V35C60 37.7614 62.2386 40 65 40H95C97.7614 40 100 42.2386 100 45V55C100 57.7614 97.7614 60 95 60H65C62.2386 60 60 62.2386 60 65V95C60 97.7614 57.7614 100 55 100H45Z" fill="#AF9F9F" fill-opacity="0.6"/>
</svg>
