<svg width="96" height="95" viewBox="0 0 96 95" fill="none" xmlns="http://www.w3.org/2000/svg">
<path d="M21.1819 94.4239C19.6805 95.3773 17.7747 94.0434 18.1565 92.3062L25.0021 61.1543C25.1555 60.4563 24.9248 59.7295 24.3969 59.2478L1.34912 38.2143C0.0651271 37.0425 0.78422 34.9035 2.51531 34.7453L32.7818 31.9797C33.5295 31.9114 34.176 31.43 34.4558 30.7332L46.144 1.62253C46.8158 -0.0505447 49.1842 -0.050551 49.856 1.62252L61.5442 30.7332C61.824 31.43 62.4705 31.9114 63.2182 31.9797L93.4847 34.7453C95.2158 34.9035 95.9349 37.0425 94.6509 38.2143L71.6031 59.2478C71.0752 59.7295 70.8445 60.4563 70.9979 61.1543L77.8435 92.3063C78.2253 94.0434 76.3195 95.3773 74.818 94.4239L49.0721 78.0755C48.4178 77.66 47.5822 77.66 46.9279 78.0755L21.1819 94.4239Z" fill="url(#paint0_linear_375_1069)"/>
<defs>
<linearGradient id="paint0_linear_375_1069" x1="48" y1="45.7805" x2="-2" y2="47" gradientUnits="userSpaceOnUse">
<stop stop-color="#AF9F9F" stop-opacity="0.6"/>
</linearGradient>
</defs>
</svg>
