<svg width="57" height="56" viewBox="0 0 57 56" fill="none" xmlns="http://www.w3.org/2000/svg">
<path d="M13.7232 55.4239C12.2217 56.3773 10.316 55.0434 10.6977 53.3063L14.3746 36.5741C14.528 35.8761 14.2973 35.1493 13.7694 34.6675L1.34912 23.3327C0.0651252 22.161 0.78422 20.0219 2.51531 19.8637L18.7418 18.381C19.4895 18.3127 20.136 17.8313 20.4158 17.1345L26.644 1.62252C27.3158 -0.0505536 29.6842 -0.0505511 30.356 1.62252L36.5842 17.1345C36.864 17.8313 37.5105 18.3127 38.2582 18.381L54.4847 19.8637C56.2158 20.0219 56.9349 22.161 55.6509 23.3327L43.2306 34.6675C42.7027 35.1493 42.472 35.8761 42.6254 36.5741L46.3023 53.3063C46.684 55.0434 44.7783 56.3773 43.2768 55.4239L29.5721 46.7216C28.9178 46.3061 28.0822 46.3061 27.4279 46.7216L13.7232 55.4239Z" fill="#DDFF00"/>
</svg>
